<svg width="36" height="31" viewBox="0 0 36 31" fill="none" xmlns="http://www.w3.org/2000/svg">
<path d="M5.3195 23.524C5.1869 23.524 5.05972 23.4713 4.96595 23.3776C4.87218 23.2838 4.8195 23.1566 4.8195 23.024V4.6335C4.84197 3.4115 5.34507 2.24757 6.21977 1.39392C7.09447 0.540282 8.27032 0.0656955 9.49251 0.0730049H30.8225C30.9551 0.0730049 31.0823 0.125683 31.1761 0.219452C31.2698 0.31322 31.3225 0.440397 31.3225 0.573005C31.3225 0.705613 31.2698 0.83279 31.1761 0.926558C31.0823 1.02033 30.9551 1.073 30.8225 1.073H9.49251C8.53369 1.06675 7.61091 1.43804 6.92362 2.10662C6.23632 2.7752 5.83971 3.68738 5.8195 4.646V23.024C5.8195 23.1566 5.76683 23.2838 5.67306 23.3776C5.57929 23.4713 5.45211 23.524 5.3195 23.524Z" fill="#95E1D3"/>
<path d="M29.771 9.42301H26.65C26.5174 9.42301 26.3902 9.37033 26.2965 9.27656C26.2027 9.18279 26.15 9.05562 26.15 8.92301C26.15 8.7904 26.2027 8.66322 26.2965 8.56945C26.3902 8.47569 26.5174 8.42301 26.65 8.42301H28.69C28.4981 8.05658 28.3855 7.65383 28.3597 7.24099C28.3339 6.82816 28.3953 6.41451 28.54 6.02701H26.65C26.5174 6.02701 26.3902 5.97433 26.2965 5.88056C26.2027 5.78679 26.15 5.65962 26.15 5.52701C26.15 5.3944 26.2027 5.26722 26.2965 5.17345C26.3902 5.07969 26.5174 5.02701 26.65 5.02701H29.331C29.4214 5.02699 29.5101 5.05147 29.5876 5.09784C29.6652 5.14421 29.7287 5.21073 29.7715 5.29033C29.8143 5.36993 29.8347 5.45964 29.8306 5.54992C29.8264 5.64019 29.7979 5.72765 29.748 5.80301C29.641 5.96701 28.7345 7.45051 30.084 8.53301C30.1648 8.59781 30.2234 8.6861 30.2519 8.78567C30.2803 8.88525 30.2772 8.9912 30.2428 9.08889C30.2084 9.18658 30.1446 9.2712 30.0601 9.33105C29.9756 9.3909 29.8746 9.42303 29.771 9.42301Z" fill="#95E1D3"/>
<path d="M26.65 27.32C26.5174 27.32 26.3902 27.2673 26.2965 27.1736C26.2027 27.0798 26.15 26.9526 26.15 26.82V4.6335C26.15 4.50089 26.2027 4.37371 26.2965 4.27995C26.3902 4.18618 26.5174 4.1335 26.65 4.1335C26.7826 4.1335 26.9098 4.18618 27.0036 4.27995C27.0974 4.37371 27.15 4.50089 27.15 4.6335V26.82C27.15 26.9526 27.0974 27.0798 27.0036 27.1736C26.9098 27.2673 26.7826 27.32 26.65 27.32Z" fill="#95E1D3"/>
<path d="M4.29701 30.927C3.47488 30.9269 2.67917 30.6367 2.05001 30.1075C1.95001 30.0215 1.85351 29.9355 1.76301 29.845C1.20101 29.2841 0.80463 28.579 0.617471 27.8073C0.430312 27.0357 0.459628 26.2273 0.702194 25.4713C0.94476 24.7152 1.39118 24.0407 1.99233 23.5219C2.59348 23.0032 3.32607 22.6603 4.10951 22.531C4.13627 22.5264 4.16336 22.5241 4.19051 22.524H23.2645C23.3902 22.5238 23.5113 22.571 23.6038 22.6561C23.6963 22.7413 23.7533 22.8581 23.7635 22.9834C23.7737 23.1086 23.7364 23.2332 23.6589 23.3321C23.5815 23.4311 23.4696 23.4973 23.3455 23.5175C22.744 23.6174 22.1817 23.8812 21.7204 24.2799C21.2591 24.6785 20.9166 25.1967 20.7306 25.7773C20.5445 26.358 20.5222 26.9787 20.666 27.5712C20.8097 28.1637 21.1141 28.7052 21.5455 29.136C21.616 29.207 21.6895 29.2735 21.765 29.336C22.196 29.6992 22.7367 29.9067 23.3 29.925H23.361H23.393C23.7842 29.9199 24.1696 29.8298 24.5225 29.661C25.008 29.4395 25.4195 29.0831 25.7081 28.6343C25.9966 28.1854 26.15 27.6631 26.15 27.1295C26.15 26.9969 26.2027 26.8697 26.2965 26.7759C26.3902 26.6822 26.5174 26.6295 26.65 26.6295C26.7826 26.6295 26.9098 26.6822 27.0036 26.7759C27.0973 26.8697 27.15 26.9969 27.15 27.1295C27.1514 27.8531 26.9448 28.5618 26.5548 29.1713C26.1647 29.7808 25.6077 30.2652 24.95 30.567C24.4714 30.7938 23.9496 30.9147 23.42 30.9215C23.4011 30.9237 23.3821 30.9249 23.363 30.925H4.34401C4.32851 30.9265 4.31301 30.927 4.29701 30.927ZM4.23251 23.524C3.63531 23.6306 3.07877 23.8989 2.62343 24.2998C2.16809 24.7006 1.83138 25.2187 1.64992 25.7975C1.46846 26.3764 1.44919 26.9939 1.59423 27.583C1.73926 28.1721 2.04303 28.7101 2.47251 29.1385C2.54351 29.2095 2.61951 29.2775 2.69501 29.3415C3.13256 29.7089 3.68276 29.9154 4.25401 29.9265H4.29701H20.921C20.893 29.8995 20.865 29.8725 20.8375 29.845C20.0288 29.0352 19.5743 27.9376 19.5737 26.7931C19.5732 25.6486 20.0266 24.5506 20.8345 23.74C20.909 23.6655 20.9845 23.594 21.0645 23.5255L4.23251 23.524Z" fill="#95E1D3"/>
<path d="M30.8225 9.423H29.9C29.7674 9.423 29.6402 9.37032 29.5465 9.27655C29.4527 9.18279 29.4 9.05561 29.4 8.923C29.4 8.79039 29.4527 8.66321 29.5465 8.56945C29.6402 8.47568 29.7674 8.423 29.9 8.423H30.8215C31.5441 8.42341 32.2508 8.21079 32.8532 7.81173C33.4556 7.41266 33.927 6.84486 34.2084 6.17933C34.4899 5.5138 34.5688 4.78007 34.4355 4.06988C34.3022 3.3597 33.9624 2.70458 33.4588 2.18645C32.9551 1.66831 32.3099 1.31016 31.6038 1.15676C30.8976 1.00337 30.162 1.06154 29.4887 1.32401C28.8155 1.58648 28.2346 2.0416 27.8186 2.63246C27.4026 3.22332 27.1701 3.92369 27.15 4.646C27.1493 4.71191 27.1354 4.77701 27.1092 4.83745C27.0829 4.8979 27.0447 4.95246 26.997 4.99791C26.9493 5.04336 26.8929 5.07878 26.8312 5.10207C26.7696 5.12536 26.7039 5.13604 26.638 5.1335C26.5724 5.13188 26.5076 5.11733 26.4476 5.0907C26.3876 5.06406 26.3334 5.02585 26.2881 4.97826C26.2428 4.93067 26.2074 4.87462 26.1838 4.81332C26.1602 4.75202 26.1489 4.68667 26.1505 4.621C26.1749 3.7017 26.4698 2.81 26.9984 2.05745C27.5269 1.3049 28.2657 0.724907 29.1222 0.390035C29.9787 0.0551639 30.9149 -0.0197215 31.8137 0.174747C32.7125 0.369216 33.5341 0.824405 34.1755 1.48337C34.817 2.14234 35.2499 2.97582 35.4201 3.87956C35.5903 4.78329 35.4903 5.71715 35.1325 6.56431C34.7746 7.41148 34.175 8.13433 33.4085 8.64244C32.642 9.15055 31.7427 9.42136 30.823 9.421L30.8225 9.423Z" fill="#95E1D3"/>
<path d="M23.768 5.4165H8.73101C8.5984 5.4165 8.47122 5.36383 8.37746 5.27006C8.28369 5.17629 8.23101 5.04911 8.23101 4.9165C8.23101 4.7839 8.28369 4.65672 8.37746 4.56295C8.47122 4.46918 8.5984 4.4165 8.73101 4.4165H23.768C23.9006 4.4165 24.0278 4.46918 24.1216 4.56295C24.2153 4.65672 24.268 4.7839 24.268 4.9165C24.268 5.04911 24.2153 5.17629 24.1216 5.27006C24.0278 5.36383 23.9006 5.4165 23.768 5.4165Z" fill="#95E1D3"/>
<path d="M23.768 9.9295H19.75C19.6174 9.9295 19.4902 9.87683 19.3965 9.78306C19.3027 9.68929 19.25 9.56211 19.25 9.4295C19.25 9.2969 19.3027 9.16972 19.3965 9.07595C19.4902 8.98218 19.6174 8.9295 19.75 8.9295H23.768C23.9006 8.9295 24.0278 8.98218 24.1216 9.07595C24.2153 9.16972 24.268 9.2969 24.268 9.4295C24.268 9.56211 24.2153 9.68929 24.1216 9.78306C24.0278 9.87683 23.9006 9.9295 23.768 9.9295Z" fill="#95E1D3"/>
<path d="M9.87501 9.9295H8.73101C8.5984 9.9295 8.47123 9.87683 8.37746 9.78306C8.28369 9.68929 8.23101 9.56211 8.23101 9.4295C8.23101 9.2969 8.28369 9.16972 8.37746 9.07595C8.47123 8.98218 8.5984 8.9295 8.73101 8.9295H9.87501C10.0076 8.9295 10.1348 8.98218 10.2286 9.07595C10.3223 9.16972 10.375 9.2969 10.375 9.4295C10.375 9.56211 10.3223 9.68929 10.2286 9.78306C10.1348 9.87683 10.0076 9.9295 9.87501 9.9295Z" fill="#95E1D3"/>
<path d="M23.768 14.442H19.9585C19.8259 14.442 19.6987 14.3893 19.605 14.2956C19.5112 14.2018 19.4585 14.0746 19.4585 13.942C19.4585 13.8094 19.5112 13.6822 19.605 13.5884C19.6987 13.4947 19.8259 13.442 19.9585 13.442H23.768C23.9006 13.442 24.0278 13.4947 24.1216 13.5884C24.2154 13.6822 24.268 13.8094 24.268 13.942C24.268 14.0746 24.2154 14.2018 24.1216 14.2956C24.0278 14.3893 23.9006 14.442 23.768 14.442Z" fill="#95E1D3"/>
<path d="M9.30301 14.442H8.73101C8.5984 14.442 8.47123 14.3893 8.37746 14.2956C8.28369 14.2018 8.23101 14.0746 8.23101 13.942C8.23101 13.8094 8.28369 13.6822 8.37746 13.5884C8.47123 13.4947 8.5984 13.442 8.73101 13.442H9.30301C9.43562 13.442 9.5628 13.4947 9.65657 13.5884C9.75034 13.6822 9.80302 13.8094 9.80302 13.942C9.80302 14.0746 9.75034 14.2018 9.65657 14.2956C9.5628 14.3893 9.43562 14.442 9.30301 14.442Z" fill="#95E1D3"/>
<path d="M23.768 18.955H23.229C23.0964 18.955 22.9692 18.9023 22.8755 18.8086C22.7817 18.7148 22.729 18.5876 22.729 18.455C22.729 18.3224 22.7817 18.1952 22.8755 18.1014C22.9692 18.0077 23.0964 17.955 23.229 17.955H23.768C23.9006 17.955 24.0278 18.0077 24.1216 18.1014C24.2153 18.1952 24.268 18.3224 24.268 18.455C24.268 18.5876 24.2153 18.7148 24.1216 18.8086C24.0278 18.9023 23.9006 18.955 23.768 18.955Z" fill="#95E1D3"/>
<path d="M15.479 18.955H8.72899C8.59638 18.955 8.4692 18.9023 8.37543 18.8086C8.28167 18.7148 8.22899 18.5876 8.22899 18.455C8.22899 18.3224 8.28167 18.1952 8.37543 18.1014C8.4692 18.0077 8.59638 17.955 8.72899 17.955H15.479C15.6116 17.955 15.7388 18.0077 15.8325 18.1014C15.9263 18.1952 15.979 18.3224 15.979 18.455C15.979 18.5876 15.9263 18.7148 15.8325 18.8086C15.7388 18.9023 15.6116 18.955 15.479 18.955Z" fill="#95E1D3"/>
<path d="M14.473 16.95C13.7898 16.95 13.1172 16.7815 12.5147 16.4595C11.9122 16.1374 11.3984 15.6717 11.0188 15.1037C10.6393 14.5356 10.4057 13.8827 10.3388 13.2028C10.2719 12.5229 10.3737 11.837 10.6353 11.2059C10.8968 10.5747 11.3099 10.0178 11.8381 9.58449C12.3663 9.15116 12.9932 8.8548 13.6633 8.72165C14.3334 8.58851 15.0259 8.62268 15.6797 8.82116C16.3334 9.01963 16.9281 9.37628 17.411 9.8595C17.9922 10.4403 18.388 11.1805 18.5484 11.9864C18.7088 12.7923 18.6265 13.6277 18.312 14.3868C17.9974 15.1459 17.4648 15.7946 16.7814 16.2509C16.098 16.7071 15.2947 16.9504 14.473 16.95ZM14.473 9.6425C13.7431 9.64253 13.0358 9.89566 12.4715 10.3587C11.9073 10.8218 11.5211 11.4662 11.3788 12.1821C11.2364 12.898 11.3467 13.6412 11.6908 14.2849C12.0349 14.9286 12.5915 15.4331 13.2659 15.7124C13.9403 15.9917 14.6906 16.0285 15.3891 15.8166C16.0876 15.6047 16.691 15.1571 17.0965 14.5502C17.502 13.9433 17.6845 13.2145 17.613 12.4881C17.5414 11.7617 17.2202 11.0826 16.704 10.5665C16.4118 10.2724 16.0642 10.0391 15.6812 9.88023C15.2983 9.72136 14.8876 9.64005 14.473 9.641V9.6425Z" fill="#95E1D3"/>
<path d="M13.4915 13.295C13.1639 13.2951 12.8463 13.1816 12.5929 12.9738C12.3396 12.766 12.1662 12.4767 12.1022 12.1554C12.0383 11.834 12.0877 11.5004 12.2422 11.2114C12.3967 10.9225 12.6466 10.696 12.9494 10.5707C13.2521 10.4453 13.5889 10.4289 13.9025 10.5241C14.216 10.6193 14.4868 10.8203 14.6687 11.0929C14.8506 11.3654 14.9324 11.6926 14.9001 12.0186C14.8678 12.3447 14.7234 12.6495 14.4915 12.881C14.3602 13.0123 14.2043 13.1165 14.0327 13.1875C13.8611 13.2585 13.6772 13.2951 13.4915 13.295ZM13.4915 11.4625C13.395 11.4624 13.3015 11.4959 13.2269 11.557C13.1523 11.6182 13.1012 11.7034 13.0823 11.798C13.0635 11.8927 13.078 11.9909 13.1235 12.076C13.169 12.1611 13.2426 12.2278 13.3317 12.2647C13.4208 12.3017 13.52 12.3065 13.6124 12.2785C13.7047 12.2505 13.7845 12.1913 13.8381 12.1111C13.8917 12.0309 13.9158 11.9345 13.9063 11.8385C13.8968 11.7425 13.8543 11.6527 13.786 11.5845C13.7474 11.5457 13.7015 11.515 13.651 11.494C13.6004 11.4731 13.5462 11.4624 13.4915 11.4625Z" fill="#95E1D3"/>
<path d="M19.953 20.503C19.8204 20.503 19.6932 20.4503 19.5995 20.3565L15.7065 16.4635C15.6587 16.4174 15.6206 16.3622 15.5944 16.3012C15.5682 16.2402 15.5544 16.1746 15.5539 16.1082C15.5533 16.0418 15.5659 15.976 15.5911 15.9145C15.6162 15.8531 15.6533 15.7973 15.7003 15.7503C15.7472 15.7034 15.8031 15.6662 15.8645 15.6411C15.926 15.6159 15.9918 15.6033 16.0582 15.6039C16.1246 15.6045 16.1902 15.6182 16.2512 15.6445C16.3122 15.6707 16.3674 15.7087 16.4135 15.7565L20.15 19.491L21.114 19.436L21.17 18.4705L21.089 18.3895L20.271 18.2965C20.1586 18.2838 20.0538 18.2332 19.9738 18.1532C19.8937 18.0732 19.8432 17.9684 19.8305 17.856L19.7625 17.2605L19.168 17.193C19.0555 17.1804 18.9506 17.1299 18.8704 17.0499C18.7903 16.9699 18.7398 16.865 18.727 16.7525L18.634 15.9345L17.434 14.7345C17.3429 14.6402 17.2925 14.5139 17.2937 14.3828C17.2948 14.2517 17.3474 14.1263 17.4401 14.0336C17.5328 13.9409 17.6582 13.8883 17.7893 13.8872C17.9204 13.886 18.0467 13.9364 18.141 14.0275L19.4625 15.35C19.5426 15.4298 19.5931 15.5346 19.6055 15.647L19.6735 16.243L20.2685 16.31C20.3809 16.3227 20.4857 16.3733 20.5657 16.4533C20.6457 16.5333 20.6962 16.6381 20.709 16.7505L20.777 17.347L21.374 17.415C21.4863 17.4277 21.591 17.4781 21.671 17.558L22.034 17.9215C22.0838 17.9714 22.1226 18.0313 22.1477 18.0972C22.1727 18.1631 22.1836 18.2336 22.1795 18.304L22.0845 19.9375C22.0773 20.0599 22.0254 20.1754 21.9387 20.2621C21.852 20.3487 21.7364 20.4005 21.614 20.4075L19.9815 20.5015L19.953 20.503Z" fill="#95E1D3"/>
</svg>
